<?xml version="1.0" encoding="utf-8"?>
<!-- Generator: Adobe Illustrator 25.0.0, SVG Export Plug-In . SVG Version: 6.00 Build 0)  -->
<svg version="1.1" id="Capa_1" xmlns="http://www.w3.org/2000/svg" xmlns:xlink="http://www.w3.org/1999/xlink" x="0px" y="0px"
	 viewBox="0 0 512 512" style="enable-background:new 0 0 512 512;" xml:space="preserve">
<style type="text/css">
	.st0{fill:#A43DA3;}
	.st1{fill:#3D1C55;}
</style>
<path class="st0" d="M414,10H98c-48.6,0-88,39.4-88,88v316c0,48.6,39.4,88,88,88h158c0-0.1,0-104.9,0-196.5h-59v-71h59v-52
	c0-33.3,15.5-84.9,84.2-84.9h74.5v69.7c0,0-49.6,0-56.7,0c-7.6,0-18,3.6-18,19.3V234h75.2l-7.2,71.5h-68c0,90.7,0,196.4,0,196.5h74
	c48.6,0,88-39.4,88-88V98C502,49.4,462.6,10,414,10z"/>
<path class="st1" d="M256,395.5c-5.5,0-10-4.5-10-10v-0.1l0,0l0,0c0-5.5,4.5-10,10-10s10,4.5,10,10l0,0l0,0l0,0l0,0
	C266,391,261.5,395.5,256,395.5z"/>
<path class="st1" d="M414,512h-74c-5.5,0-10-4.5-10-10V305.5c0-5.5,4.5-10,10-10h58.9l5.2-51.5H340c-5.5,0-10-4.5-10-10v-47.5
	c0-21.6,15.1-29.3,28-29.3h46.7v-49.7h-64.5c-67,0-74.2,52.4-74.2,74.9v52c0,5.5-4.5,10-10,10h-49v51h49c5.5,0,10,4.5,10,10V344
	c0,5.5-4.5,10-10,10s-10-4.5-10-10v-28.5h-49c-5.5,0-10-4.5-10-10v-71c0-5.5,4.5-10,10-10h49v-42c0-13.4,2.4-39.1,18.2-60.8
	c11.3-15.6,33.7-34.1,76-34.1h74.5c5.5,0,10,4.5,10,10v69.7c0,5.5-4.5,10-10,10H358c-5.8,0-8,2.5-8,9.3V224h65.2
	c2.8,0,5.5,1.2,7.4,3.3s2.8,4.9,2.5,7.7l-7.2,71.5c-0.5,5.1-4.8,9-10,9h-58V492h64c43,0,78-35,78-78V98c0-43-35-78-78-78H98
	c-43,0-78,35-78,78v316c0,43,35,78,78,78h148v-67.5c0-5.5,4.5-10,10-10s10,4.5,10,10V502c0,5.5-4.5,10-10,10H98c-54,0-98-44-98-98
	V98C0,44,44,0,98,0h316c54,0,98,44,98,98v316C512,468,468,512,414,512z"/>
<path class="st1" d="M58,206c-5.5,0-10-4.5-10-10v-83.5c0-5.5,4.5-10,10-10s10,4.5,10,10V196C68,201.5,63.5,206,58,206z"/>
<path class="st1" d="M58,249.5c-5.5,0-10-4.5-10-10v-0.1c0-5.5,4.5-10,10-10s10,4.5,10,10v0.1C68,245,63.5,249.5,58,249.5z"/>
</svg>
