<?xml version="1.0" encoding="utf-8"?>
<!-- Generator: Adobe Illustrator 25.0.0, SVG Export Plug-In . SVG Version: 6.00 Build 0)  -->
<svg version="1.1" id="Capa_1" xmlns="http://www.w3.org/2000/svg" xmlns:xlink="http://www.w3.org/1999/xlink" x="0px" y="0px"
	 viewBox="0 0 512 512" style="enable-background:new 0 0 512 512;" xml:space="preserve">
<style type="text/css">
	.st0{fill:#A43DA3;}
	.st1{fill:#3D1C55;}
</style>
<path class="st0" d="M362,10H150C72.7,10,10,72.7,10,150v212c0,77.3,62.7,140,140,140h212c77.3,0,140-62.7,140-140V150
	C502,72.7,439.3,10,362,10z M458,362c0,53-43,96-96,96H150c-53,0-96-43-96-96V150c0-53,43-96,96-96h212c53,0,96,43,96,96V362z"/>
<path class="st0" d="M256,128c-70.7,0-128,57.3-128,128s57.3,128,128,128s128-57.3,128-128S326.7,128,256,128z M256,336
	c-44.2,0-80-35.8-80-80s35.8-80,80-80s80,35.8,80,80S300.2,336,256,336z"/>
<circle class="st0" cx="387.2" cy="124.8" r="28"/>
<path class="st1" d="M362,512H150C67.3,512,0,444.7,0,362V150C0,67.3,67.3,0,150,0h212c82.7,0,150,67.3,150,150v212
	C512,444.7,444.7,512,362,512z M150,20C78.3,20,20,78.3,20,150v212c0,71.7,58.3,130,130,130h212c71.7,0,130-58.3,130-130V150
	c0-71.7-58.3-130-130-130H150z"/>
<path class="st1" d="M362,468h-60.3c-5.5,0-10-4.5-10-10s4.5-10,10-10H362c47.4,0,86-38.6,86-86V150c0-47.4-38.6-86-86-86H150
	c-47.4,0-86,38.6-86,86v212c0,47.4,38.6,86,86,86h61c5.5,0,10,4.5,10,10s-4.5,10-10,10h-61c-58.4,0-106-47.6-106-106V150
	C44,91.6,91.6,44,150,44h212c58.4,0,106,47.6,106,106v212C468,420.4,420.4,468,362,468z"/>
<path class="st1" d="M256,468c-2.6,0-5.2-1.1-7.1-2.9s-2.9-4.4-2.9-7.1s1.1-5.2,2.9-7.1c1.9-1.9,4.4-2.9,7.1-2.9s5.2,1.1,7.1,2.9
	c1.9,1.9,2.9,4.4,2.9,7.1s-1.1,5.2-2.9,7.1S258.6,468,256,468z"/>
<path class="st1" d="M168.1,172.9c-2.7,0-5.3-1.1-7.3-3.1c-3.8-4-3.6-10.3,0.4-14.1l0.4-0.4c4-3.8,10.4-3.6,14.1,0.5
	c3.8,4,3.6,10.4-0.5,14.1l-0.4,0.4C173,172,170.6,172.9,168.1,172.9z"/>
<path class="st1" d="M256,394c-76.1,0-138-61.9-138-138c0-23.9,6.2-47.4,17.9-68.1c2.7-4.8,8.8-6.5,13.6-3.8s6.5,8.8,3.8,13.6
	c-10,17.6-15.3,37.8-15.3,58.2c0,65.1,52.9,118,118,118s118-52.9,118-118s-52.9-118-118-118c-19.1,0-37.2,4.4-54,13.1
	c-4.9,2.5-10.9,0.6-13.5-4.3c-2.5-4.9-0.6-10.9,4.3-13.5c19.4-10,41.3-15.3,63.2-15.3c76.1,0,138,61.9,138,138S332.1,394,256,394z"
	/>
<path class="st1" d="M256,346c-49.6,0-90-40.4-90-90s40.4-90,90-90s90,40.4,90,90S305.6,346,256,346z M256,186
	c-38.6,0-70,31.4-70,70s31.4,70,70,70s70-31.4,70-70S294.6,186,256,186z"/>
<path class="st1" d="M387.2,162.8c-21,0-38-17-38-38s17-38,38-38s38,17,38,38S408.2,162.8,387.2,162.8z M387.2,106.8
	c-9.9,0-18,8.1-18,18s8.1,18,18,18s18-8.1,18-18S397.2,106.8,387.2,106.8z"/>
</svg>
