<svg xmlns="http://www.w3.org/2000/svg" viewBox="0 0 2785.76 209.35"><defs><style>.cls-1{fill:#fff;}</style></defs><g id="Layer_2" data-name="Layer 2"><g id="Layer_1-2" data-name="Layer 1"><path class="cls-1" d="M79.26,148.88q-.54.27-31.62,22.54-18.1,13-32.16,19.28a7.2,7.2,0,0,1-3.25.81q-3.78,0-7-4.87c-3.24-4.33-5-6.58-5.14-6.77q-.54-23.81,3-66.32Q7.11,68.34,7.1,48.31q0-13.8-1.08-26a12.08,12.08,0,0,1,8.92-3.51q10.26,0,11.89,7.56.81,22.17-1.89,66.36t-2.17,66.35q7.57-3.24,19.74-11.35,13.23-9.19,19.19-12.16a35.4,35.4,0,0,0,4.73-.54,35.21,35.21,0,0,1,5-.54q5.42,0,7.84,4.34Q82.52,144.82,79.26,148.88Z"/><path class="cls-1" d="M178.72,121.78q-15.94,36-45.14,42.71a31.13,31.13,0,0,1-7,.81q-15.4,0-31.08-16.76-10.55-11.35-10.55-29.46,0-20,11.9-43a65.39,65.39,0,0,1,12.43-16.75Q117.63,51,125.21,51a12.24,12.24,0,0,1,8.1,3.24q3.8,3.24,20.27,8.65,13,4.33,18.39,14.6,9.45,18.11,9.45,31.08A31.65,31.65,0,0,1,178.72,121.78ZM157.1,105q-1.89-19.72-10.54-23.51a6.72,6.72,0,0,0-2.43-.54q-3.25,0-8.11,5.41-5.42,6.21-8.38,7.29-1.9.81-5.41-1.62t-4.59-2.43a1.83,1.83,0,0,0-1.35.54q-9.47,8.11-9.46,25.14,0,11.61,5.4,19.73,7.58,11.08,12.7,11.08,11.9,0,23-14.87Q158.45,117.19,157.1,105Z"/><path class="cls-1" d="M248.45,16.64q0,5.41-7.84,9.46a5.75,5.75,0,0,1-4.59.27c-2.53-.71-3.88-1.08-4.06-1.08a4.64,4.64,0,0,0-3.24,1.63q-14.59,14.58-14.6,35.67a42.85,42.85,0,0,0,2.44,14.6q1.06,3,20.54,41.89,13,26,13,44.06a60.37,60.37,0,0,1-7.3,28.64q-2.43,4.59-12.16,11.9-7.85,5.67-14.05,5.67a13,13,0,0,1-4.6-.81q-8.1-3.51-8.1-8.92c0-2.16,1.34-4.78,4-7.84q1.08-1.35,5.13-1.62t5.41-3.24a56,56,0,0,0,5.68-24.33q0-17.57-17.44-50.94T189.26,58.27q0-16.49,6.49-29.46Q203,13.94,216.56,7.45a28,28,0,0,1,12.16-3q11.35,0,17,6.22A8.91,8.91,0,0,1,248.45,16.64Z"/><path class="cls-1" d="M520.82,27c-12-10.47-31.19-15.51-45-5.27-8.16,6-12.89,16.48-16.58,25.65,0,.12-.08.24-.13.36a32,32,0,0,0-12-10.32C434.06,31,418.73,34.9,411.54,47.89c-13.56,24.5,1.33,57.17,17.6,76.42,5.24,6.18,11.35,11.19,17.72,16.14,4.8,3.74,10.85,8,13.21,13.85a9.8,9.8,0,0,0,5.77,5.81,9,9,0,0,0,4,9.26c4.32,2.52,8.84.64,11.58-3,11.19-15,22.65-29.88,33.53-45.13,10.4-14.58,19.17-30.4,21.4-48.42C538.45,56.14,533.79,38.29,520.82,27ZM519,75.25C516,89.59,508,102,499.58,113.77c-8,11.15-16.31,22.14-24.57,33.13-5.09-10.09-13.72-16.18-22.48-23.34A82.82,82.82,0,0,1,430.59,96c-4.68-9.48-7.73-19.82-7-29.84a23.05,23.05,0,0,1,3.56-11.3,10.18,10.18,0,0,1,2.66-2.55,7.56,7.56,0,0,1,5-1.23c13.15.9,16.3,18.47,18,28.67.69,4.09,5.51,6.63,9.28,6.06,4.34-.65,7-4,7.34-8.31,1-13.61,5.42-28.4,13.7-39.44,7-9.28,20.57-4.29,27.42,2.43C519.7,49.51,521.51,63.05,519,75.25Z"/><path class="cls-1" d="M355.32,118.79c6.86,0,16.35-2.35,18-10.29,1.51-7.13-5.72-13-12.42-13-6.86,0-16.35,2.34-18,10.29-1.5,7.13,5.72,13,12.43,13Z"/><path class="cls-1" d="M589.44,110c15.07,0,10.81-30.67-4.78-30.67-15.07,0-10.8,30.67,4.78,30.67Z"/><path class="cls-1" d="M863,26.55q-7.29,0-10.27,6.49-1.89,4.07-3.24,14.6c-.91,7-2,11.8-3.25,14.32q-6.48,13.51-11.62,37.3-6.48,31.36-8.65,38.38-6.48,21.09-17.83,33.79-4.33-16-4.87-21.63-.81-11.07-.81-24.6,0-12.69,1.35-41.35,1.08-26.76.81-40.54c-2-1.08-4-2.11-6.08-3.11a13.68,13.68,0,0,0-5.81-1.48q-13,0-13,16.76,0,19.46.27,16.75-3.79,31.08-3.79,50.82,0,34.32,10.27,59.73,6,15.14,18.11,15.4,13.79.27,24.33-14.05a127.5,127.5,0,0,0,22.7-49.73q1.89-8.93,14.06-51.36,8.91-31.62,10.81-50.54Q872.48,26.56,863,26.55Z"/><path class="cls-1" d="M953.84,61.69q-1.37-11.07-3-22.16-2.16-13-9.73-19.46a10.41,10.41,0,0,0-6.76-2.44c-3.42,0-5.67,1.27-6.75,3.79q-7,17-16,48.92-10.54,36.76-15.4,50.27c-.37,1.27-2,2.21-5,2.84s-4.87,1.45-5.68,2.43a4.61,4.61,0,0,0-1.22,2.84q0,1.62,3.79,4.59t3.51,5.41q-.81,8.39-8.92,28.11-6.75,17.29-5.94,27.57c.35,3.42,3.51,6.12,9.45,8.11,4.69,1.43,7.75.54,9.2-2.71q4.32-10.28,8.92-30,4.86-21.35,7.83-29.73,6-5.13,16.49-6.49L947.08,132q5.13,13.77,8.92,34.32,3.51,18.92,16.75,21.35,1.63.27,6.22-3.78a12.27,12.27,0,0,0,4.59-9.46,22.25,22.25,0,0,0-1.61-7.57Q967.34,125.47,953.84,61.69ZM919.78,116q5.94-22.44,14.06-44.87Q936.27,82,939,92.77a170.79,170.79,0,0,1,3.51,22.44Q924.11,115.21,919.78,116Z"/><path class="cls-1" d="M1049.78,56.28q-24.87-20.53-47.57-25.4-3.51.27-7,.81-4.61.54-6,3.78a7.31,7.31,0,0,0-.54,2.71q0,3,3.51,6.48l5.95,6.22q1.35,14.59,1.35,32.16,0,13.24-1.08,39.46T997.35,162q0,13,.81,24.33a6.62,6.62,0,0,0,3.65,3.51c1.71.72,3.28,1.36,4.73,1.9a11,11,0,0,0,3.78.81c2.16,0,4.33-1.18,6.49-3.52s4.14-4.59,5.94-6.75q8.12-4.87,18.11-17.3,8.39-10.27,16.76-20.81a46.06,46.06,0,0,0,7-11.62q2.43-6.22,5.13-12.44a39.85,39.85,0,0,0,3.52-16.49q0-16.76-13-35.94A56,56,0,0,0,1049.78,56.28Zm-29.46,100.55q-.81-50.54,1.08-95.68,26.49,13,28.92,30a53.53,53.53,0,0,1,.54,7.57Q1050.86,126.29,1020.32,156.83Z"/><path class="cls-1" d="M1169.78,151.7q-29.46-26.76-29.72-27l-8.66-7q-5.67-4.87-5.67-8.38,0-3.24,4.86-5.94a59.24,59.24,0,0,0,20-17.84q9.47-12.7,9.46-25.41,0-15.14-10-28.11-10.82-14.05-25.4-14.59Q1095.73,16,1093,32.77q-4.05,25.14-4,61.89v29.47q-.27,21.62-1.35,37.29-.27,1.91-1.35,9.73a72.21,72.21,0,0,0-1.08,10.81q0,13.8,11.89,16.49a6.87,6.87,0,0,0,4.73-.81,14.2,14.2,0,0,1,3.38-1.35q3.51-13.24,4.86-35.67,2.16-29.75,3-36.76,11.63,10,35.41,35.67,21.36,23,35.68,34.06,13-3.26,13-9.46a4,4,0,0,0-.81-2.44Q1188.43,168.46,1169.78,151.7Zm-55.94-77.31q-.81-14.6-.82-18.11a78.32,78.32,0,0,1,1.36-15.4q1.62-4.05,8.1-4.06,8.65,0,12.57,4.6a20,20,0,0,1,4.73,10.27,37.16,37.16,0,0,1-.54,8.65q-3,15.41-25.4,32.16A154.34,154.34,0,0,0,1113.84,74.39Z"/><path class="cls-1" d="M1249,62.5q-16.48-5.4-20.27-8.65a12.29,12.29,0,0,0-8.11-3.24q-7.56,0-15.94,8.38a65.3,65.3,0,0,0-12.44,16.76q-11.89,23-11.89,43,0,18.12,10.54,29.46,15.67,16.75,31.08,16.76a31.22,31.22,0,0,0,7-.81q29.19-6.75,45.14-42.71a31.65,31.65,0,0,0,2.7-13.24q0-13-9.46-31.08Q1261.94,66.83,1249,62.5Zm-5.67,68.38q-11.08,14.87-23,14.87-5.13,0-12.7-11.08-5.41-8.11-5.41-19.73,0-17,9.46-25.14a1.84,1.84,0,0,1,1.36-.54c.71,0,2.25.81,4.59,2.43s4.14,2.16,5.41,1.62c2-.71,4.77-3.15,8.37-7.29q4.88-5.4,8.11-5.41a6.72,6.72,0,0,1,2.44.54q8.64,3.8,10.54,23.51Q1253.84,116.82,1243.3,130.88Z"/><path class="cls-1" d="M1332.48,118.72q-19.45-38.93-20.54-41.9a42.71,42.71,0,0,1-2.43-14.59q0-21.07,14.59-35.68a4.71,4.71,0,0,1,3.25-1.62c.18,0,1.53.37,4.05,1.08a5.78,5.78,0,0,0,4.6-.27q7.83-4.05,7.83-9.46a8.91,8.91,0,0,0-2.7-5.94q-5.67-6.22-17-6.22a28,28,0,0,0-12.16,3q-13.51,6.48-20.81,21.34a65.12,65.12,0,0,0-6.49,29.47q0,20,17.44,53.38t17.43,50.94a55.85,55.85,0,0,1-5.68,24.33q-1.35,3-5.4,3.24c-2.7.18-4.42.72-5.14,1.62q-4.05,4.61-4,7.84,0,5.42,8.11,8.92a13,13,0,0,0,4.59.82q6.22,0,14.06-5.68,9.72-7.31,12.16-11.9a60.35,60.35,0,0,0,7.3-28.65Q1345.46,144.68,1332.48,118.72Z"/><path class="cls-1" d="M745.34,26.19c-40.76,9.05-76,32.61-82.31,76.34-3.08,21.56-.23,45.65,14.18,62.82,15.8,18.82,42.18,28.79,65,35.59,13.68,4.08,30.36-17.4,12.77-22.65-17-5.07-35.64-12.25-49-24.42-14.12-12.88-17.51-33-15.22-51.36,4-31.84,26.33-47.11,56-53.7C763,45.19,764.21,22,745.34,26.19Z"/><path class="cls-1" d="M1853.57,57q0-8.37-.55-16.21a1.73,1.73,0,0,1-.81-1.09,11.61,11.61,0,0,1,0-3.78q0-2.7-.81-2.7a3.28,3.28,0,0,0-1.62.81,20.37,20.37,0,0,0-10.27-3q-6.49,0-9.19,5.14.54,6.76.54,13.78,0,18.12-4.46,54.6t-4.46,54.87c0,.62,0,1.19,0,1.8q-5.38-5.67-12.21-11.8-29.46-26.76-29.73-27l-8.64-7q-5.69-4.86-5.68-8.38,0-3.24,4.86-5.94a59.13,59.13,0,0,0,20-17.84q9.47-12.71,9.46-25.41,0-15.14-10-28.11-10.82-14-25.4-14.59-28.94-1.35-31.63,15.4-4.05,25.14-4,61.9v29.46q-.27,21.63-1.35,37.3-.27,1.89-1.35,9.73a72.09,72.09,0,0,0-1.08,10.81q0,13.79,11.89,16.48a6.87,6.87,0,0,0,4.73-.81,14.2,14.2,0,0,1,3.38-1.35q3.51-13.25,4.86-35.67,2.16-29.73,3-36.76,11.63,10,35.41,35.68,21.35,23,35.68,34a35.87,35.87,0,0,0,7.24-2.54,21.6,21.6,0,0,0,4.38.65q8.1.27,10.54-7.3-.27-6.76-.27-13.78,0-18.93,3.78-55.95T1853.57,57ZM1753.84,72.1Q1753,57.51,1753,54a78.36,78.36,0,0,1,1.36-15.41q1.62-4,8.11-4,8.64,0,12.56,4.59a20,20,0,0,1,4.73,10.27,37.1,37.1,0,0,1-.54,8.65q-3,15.41-25.4,32.16A154.17,154.17,0,0,0,1753.84,72.1Z"/><path class="cls-1" d="M2004.38,9.12q-2.43,9.73-9.19,11.36-17.57,4.32-61.08,11.35Q1928.7,99.12,1928.7,144q0,17,.54,33.52a24.35,24.35,0,0,1-.54,7.83c-.9,2.88-2.7,4.24-5.4,4.06a16.8,16.8,0,0,1-13-6.62,24.86,24.86,0,0,1-5.67-14.19q-.54-10-.54-21.09,0-17.83,2.43-56.48,2.43-37,2.16-56.49-7.29-.54-20.27,1.35-14.87,2.17-20.54,2.16-13.25,0-21.62-7.08c-2.16-4.72-3.25-7.18-3.25-7.36a6.47,6.47,0,0,1,1.9-4.09q8.65-3,35.4-5.45,23.52-2.45,35.14-8.72a66.54,66.54,0,0,0,21.62,3.24,89.47,89.47,0,0,0,23.25-3q3.24-.27,16.48-3.79Q1986.55-.61,1993,.2q4.86,0,4,4.06Q2004.39,4.26,2004.38,9.12Z"/><path class="cls-1" d="M2065.73,164.53a22.1,22.1,0,0,1,1.62,7.57,12.27,12.27,0,0,1-4.59,9.46q-4.61,4-6.22,3.78-13.24-2.43-16.75-21.35-3.8-20.53-8.92-34.32l-18.38,1.62q-10.54,1.35-16.49,6.49-3,8.37-7.84,29.72-4.59,19.74-8.92,30-2.16,4.86-9.19,2.7-8.91-3-9.46-8.11-.81-10.28,6-27.57,8.1-19.72,8.92-28.11.27-2.43-3.52-5.4c-2.52-2-3.78-3.52-3.78-4.6a4.61,4.61,0,0,1,1.22-2.84q1.21-1.47,5.68-2.43c3-.63,4.63-1.57,5-2.84q4.88-13.5,15.41-50.27,8.93-31.89,16-48.92,1.62-3.78,6.75-3.78a10.4,10.4,0,0,1,6.76,2.43q7.56,6.48,9.73,19.46,1.62,11.09,3,22.16Q2051.14,123.19,2065.73,164.53Zm-39.46-51.62a172.62,172.62,0,0,0-3.51-22.43q-2.7-10.82-5.14-21.63-8.1,22.44-14,44.87Q2007.89,112.91,2026.27,112.91Z"/><path class="cls-1" d="M1532.2,118.17q-2.71,6.22-5.14,12.43a45.67,45.67,0,0,1-7,11.63q-8.37,10.53-16.75,20.81-10,12.44-18.11,17.3-2.7,3.24-6,6.75c-2.16,2.34-4.32,3.52-6.48,3.52a11,11,0,0,1-3.79-.81q-2.16-.83-4.73-1.9a6.65,6.65,0,0,1-3.65-3.51q-.81-11.35-.81-24.33,0-13.23,1.08-39.46t1.09-39.46q0-17.56-1.36-32.16-.27-.27-5.94-6.22-3.53-3.51-3.52-6.48a7.31,7.31,0,0,1,.54-2.71q1.35-3.24,5.95-3.78,3.51-.54,7-.81,22.69,4.86,47.57,25.41a56.31,56.31,0,0,1,10.54,11.35q13,19.19,13,35.94A39.88,39.88,0,0,1,1532.2,118.17Zm-19.46-28.92q-2.43-17-28.92-30-1.9,45.14-1.08,95.68,30.54-30.54,30.54-58.11A55.17,55.17,0,0,0,1512.74,89.25Z"/><path class="cls-1" d="M1641.39,42.76q-10,4.07-29.46,9.46t-29.46,9.46Q1580,68.72,1579,93a28.19,28.19,0,0,0,10,1.63,92.13,92.13,0,0,0,12.71-1.35,92.43,92.43,0,0,1,12.7-1.36,24.68,24.68,0,0,1,13,3.25q3.8,5.4,3.79,7a3.31,3.31,0,0,1-1.9,3,31.71,31.71,0,0,0-3.78,3.78,6.18,6.18,0,0,1-5.4,2.16q-5.68,1.36-20.81,1.62Q1586.51,113,1579,116q-5.13,20-5.13,31.62,0,7.85,2.16,12.43,12.7,8.92,44.06,7.57a7.31,7.31,0,0,0,4.59-2q2.43-2,4-2,7.58-1.62,10,11.35a10.75,10.75,0,0,1-1.49,8,8,8,0,0,1-6.62,3.92q-32.71,1.08-56.76-5.13a28.77,28.77,0,0,1-13.79-8.38,24.24,24.24,0,0,1-7-14.6q-2.43-23.51,0-42.16-7.58-5.13-6.76-10,.27-2.43,4.19-4.46c2.61-1.35,4.1-2.74,4.46-4.19s1.08-10,2.16-25.68q-15.13-3-14.86-11.35.25-7.83,9.46-12.43l17.29-7a136.31,136.31,0,0,1,25.41-9.19q13-3.51,26.22-6.75a16.77,16.77,0,0,1,3.24-.27q7.29,0,17,5.67c.17.72.63,2.07,1.35,4.05a14.7,14.7,0,0,1,1.08,4.33A4.13,4.13,0,0,1,1641.39,42.76Z"/><path class="cls-1" d="M2185.72,152.71c0,16.46-12.63,29.66-28.8,29.66s-29.09-13.2-29.09-29.66a29.15,29.15,0,0,1,29.09-29.46C2173.09,123.25,2185.72,136.45,2185.72,152.71Zm-53.1.29c0,14.26,10.52,25.45,24.3,25.45,13.49,0,24-11.19,24-25.74,0-14.25-10.52-25.54-24-25.54C2143.14,127.17,2132.62,138.46,2132.62,153Zm36-11.19a20.67,20.67,0,0,0-9.28-2.2c-9,0-13.39,5.74-13.39,13.39,0,7.46,4.68,13.49,13.49,13.49a18.63,18.63,0,0,0,9.66-2.49l1.15,3.64c-3.35,2.2-7.75,3-11.77,3-11.1,0-17.51-7.65-17.51-17.31,0-10.91,8.61-17.8,18.28-17.8,5,0,9.28,1.44,10.52,2.59Z"/><path class="cls-1" d="M2252.49,171.18c-2.29,8.42-7.84,15.21-18.56,15.21-12,0-20.47-8.9-20.47-24.87,0-13.11,7-25.26,21.05-25.26,12.15,0,17.12,8.61,18,15.31h-4.88c-1.43-5.55-5.07-10.81-13.2-10.81-10.14,0-15.88,8.61-15.88,20.56,0,11.39,5.36,20.57,15.4,20.57,7,0,11.2-3.54,13.68-10.71Z"/><path class="cls-1" d="M2302.81,161.23c0,13.3-7.36,25.16-21.62,25.16-12.91,0-21-10.62-21-25.07,0-13.68,7.56-25.06,21.43-25.06C2294.4,136.26,2302.81,146.21,2302.81,161.23Zm-37.5.09c0,11.39,6.12,20.57,16.27,20.57,10.33,0,16.16-8.51,16.16-20.57,0-11.28-5.74-20.56-16.36-20.56C2270.48,140.76,2265.31,149.84,2265.31,161.32Z"/><path class="cls-1" d="M2319.46,178.16v26.22h-4.78V149.17c0-3.92,0-8.13-.1-11.76h4.69c.19,1.81.19,4.68.19,8.61,3-5.74,8.23-9.76,16.84-9.76,11.29,0,19.13,9.47,19.13,23.82,0,17.22-9.18,26.31-20.76,26.31C2326.25,186.39,2321.85,182.66,2319.46,178.16Zm30.9-17.89c0-11.1-5.35-19.42-14.83-19.42-11.57,0-16.36,7.27-16.36,20.28,0,12.82,3.74,20.76,15.69,20.76C2344.81,181.89,2350.36,173.47,2350.36,160.27Z"/><path class="cls-1" d="M2367,137.41c9.66,27.36,13.87,38.65,15.5,43.81h.09c1.92-5.83,5.74-16.93,15-43.81h5l-18,50.61c-5.07,14.16-8.51,17.31-17.12,17.31a32,32,0,0,1-4.4-.28v-4.79a31.57,31.57,0,0,0,4.3.29c6.89,0,9.09-3.35,12.63-13.2l-18.27-49.94Z"/><path class="cls-1" d="M2412.74,150.42c0-8-.1-11.48-.1-13h4.69c.1,1.53.19,4.59.19,10.71a18.13,18.13,0,0,1,16.65-11.86v5.16c-10,.67-16.65,7.56-16.65,19v24.87h-4.78Z"/><path class="cls-1" d="M2443,114.73h4.78V124H2443Zm0,22.68h4.78v47.83H2443Z"/><path class="cls-1" d="M2500,182c0,15.31-6.79,23.34-20.67,23.34-12.43,0-17.6-7-18.75-14.25h4.88c1.72,6.6,7.18,9.76,14.06,9.76,12.44,0,15.89-8,15.89-20.19v-5c-2.59,6.21-7.27,9.56-16,9.56-11.19,0-19.8-9.09-19.8-23.92,0-16.07,9.18-25.06,20.47-25.06,9.76,0,14,4.59,15.31,8.42.09-2.78.19-6.13.28-7.27h4.5c0,1.72-.19,9.28-.19,13.87Zm-35.3-20.86c0,11.39,6,19.62,15.21,19.62,12,0,15.59-7.94,15.59-20.38,0-12.63-3.82-19.61-15.31-19.61C2469.18,140.76,2464.69,150.23,2464.69,161.13Z"/><path class="cls-1" d="M2520.46,114.73v30.71c2.68-5,7.37-9.18,15.79-9.18,6.79,0,16.17,3.44,16.17,18.56v30.42h-4.79V155.78c0-9.48-4.3-14.83-12.24-14.83-9.48,0-14.93,5.83-14.93,17.6v26.69h-4.78V114.73Z"/><path class="cls-1" d="M2560.64,137.41h8.9V122.48h4.78v14.93h11.39v4.49h-11.39V173c0,5.35,1.15,8.42,5.74,8.42a18,18,0,0,0,5-.58v4.21a16.79,16.79,0,0,1-5.93.86c-6.12,0-9.57-3.06-9.57-10.71V141.9h-8.9Z"/><path class="cls-1" d="M2617,185.24V185c0-7.85,6.7-17.61,19.23-27.37,10.91-8.51,13.68-11.09,13.68-19,0-6.88-3.82-12.82-12.91-12.82-8.61,0-13.11,4.12-14.74,13.3h-4.88c1.25-10.52,7.85-17.89,19.62-17.89,12.72,0,18.18,8.71,18.18,17.13,0,9.76-4.12,13-15.79,22.58-9.28,7.55-14.93,13.58-16.84,19.71h35.21l-.86,4.68Z"/><path class="cls-1" d="M2707.78,153.29c0,14.44-3.73,33.1-20.56,33.1-16.37,0-20.48-17.12-20.48-32.62s4.4-32.63,20.76-32.63S2707.78,138.36,2707.78,153.29Zm-35.68.57c0,12.25,2.58,27.94,15.12,27.94,12.81,0,15.3-15,15.3-28.51,0-12.06-2.49-27.56-14.92-27.56C2674.59,125.73,2672.1,139.89,2672.1,153.86Z"/><path class="cls-1" d="M2717.54,185.24V185c0-7.85,6.7-17.61,19.23-27.37,10.91-8.51,13.68-11.09,13.68-19,0-6.88-3.82-12.82-12.91-12.82-8.61,0-13.11,4.12-14.74,13.3h-4.88c1.25-10.52,7.85-17.89,19.62-17.89,12.72,0,18.18,8.71,18.18,17.13,0,9.76-4.12,13-15.79,22.58-9.28,7.55-14.93,13.58-16.84,19.71h35.21l-.86,4.68Z"/><path class="cls-1" d="M2780.78,185.24V128.32a42.7,42.7,0,0,1-14.16,7.36v-4.49c4.11-1.44,10.24-5.17,15-9.38h4.12v63.43Z"/></g></g></svg>